<?xml version="1.0" encoding="UTF-8"?>
<svg id="Layer_2" data-name="Layer 2" xmlns="http://www.w3.org/2000/svg" viewBox="0 0 866.93 1640.62">
  <defs>
    <style>
      .cls-1 {
        fill: #010101;
      }

      .cls-2 {
        fill: #ff9f87;
      }

      .cls-3 {
        fill: #fff;
      }

      .cls-4 {
        fill: #ffdc5c;
      }

      .cls-5 {
        fill: #ffc800;
      }

      .cls-6 {
        fill: #7eb304;
      }

      .cls-7 {
        fill: #98c72a;
      }

      .cls-8 {
        fill: #de6868;
      }

      .cls-9 {
        fill: #407000;
      }

      .cls-10 {
        fill: #589c00;
      }
    </style>
  </defs>
  <g id="Happy_Pineapple" data-name="Happy Pineapple">
    <g id="Happy_Pineapple-2" data-name="Happy Pineapple">
      <path id="path3166" class="cls-9" d="m609.48,797.13c-2.77-18.53-5.57-58.25,13.33-91.84,44.29-78.74,147.89-130.82,147.89-130.82,0,0-42.2-4.2-88.03-1.08,45.94-47.2,119.31-109.84,119.31-109.84,0,0-66.35,19.36-113.83,36.92.81-3.51,1.67-7.18,2.58-10.96,11.36-22.52,21.45-41.78,28.78-54.39,20.58-35.48,139.34-139.35,139.34-139.35,0,0-51.56,13.16-98.63,28.92,32.97-60.45,75.88-145.52,75.88-145.52,0,0-100.73,37.49-142.19,88.16-26.86,32.82-48.02,67.49-64.2,98.71-11.91,5.3-22.37,10.51-31.92,16.02,5.9-39.86,13.68-82.11,22.17-100.51,34.12-73.94,122.28-199.08,122.28-199.08,0,0-134.09,58.99-184.85,139.35-34.13,54.03-71.1,142.2-71.1,142.2,0,0-22.75-88.16-8.53-170.64C494.46,96.63,548.88,0,548.88,0c0,0-121.02,105.46-145.04,145.04-19.8,32.62-31.96,84.31-39.43,133.99-19.37-11.45-39.49-18.46-57.67-22.67-10.57-20.74-23.51-41.29-39.41-60.13C232.3,154.71,85.32,45.5,85.32,45.5c0,0,101.13,176.1,125.13,233.2,10.45,24.86,35.22,80.36,60.84,137.25-35.3-20.19-66.53-32.03-66.53-32.03,0,0,67.65,57.32,93.15,111.86-24.49-17.4-56.4-35.72-93.15-46.44-68.25-19.91-147.88,5.69-147.88,5.69,0,0,94.55,37.72,122.29,56.88,31.45,21.71,59.89,48.16,84.8,75.33-29.97-20.47-66.68-37.98-107.55-41.21C45.52,537.29,0,585.85,0,585.85c0,0,124.05,15.28,164.95,39.81,41.77,25.06,153.74,122.72,175.45,141.78,1.9,6.53,3.55,12.44,4.94,17.54-46.06,22.15-97.33,58.99-148.18,119.63-80.46,95.93-122.98,217.79-122.98,352.41,0,83.28,51.76,243.7,132.88,305.5,78.67,59.94,181.47,68.89,235.74,68.89,8.56,0,16.2-.22,23.6-.52,6.53.3,14.18.52,22.74.52h0c54.27,0,157.06-8.95,235.72-68.89,81.12-61.81,132.88-222.22,132.88-305.5,0-134.62-42.53-256.48-122.98-352.41-42.57-50.77-85.41-84.73-125.27-107.49Z"/>
      <path id="path3168" class="cls-1" d="m489.12,1631.4c-8.56,0-16.2-.22-22.74-.52-7.4.3-15.04.52-23.6.52-54.27,0-157.06-8.95-235.74-68.89-81.11-61.81-132.88-222.22-132.88-305.5,0-134.62,42.53-256.48,122.98-352.41,90.83-108.31,183.05-140.8,244.42-148.98l8-1.06v-.98c2.42-.12,5.37-.21,8.78-.21,2.23,0,4.67.04,7.29.13,3.24-.09,5.67-.13,7.91-.13,3.42,0,6.37.09,8.78.21v.98l8,1.06c61.37,8.18,153.59,40.67,244.42,148.98,80.45,95.93,122.98,217.79,122.98,352.41,0,83.28-51.76,243.7-132.88,305.5-78.67,59.94-181.45,68.89-235.72,68.89h0Z"/>
      <path class="cls-4" d="m741.81,898.68c-95.28-113.61-192.86-144.53-250.27-152.18v-1.39s-9.35-1.37-25.59-.82c-16.25-.55-25.59.82-25.59.82v1.39c-57.41,7.65-154.98,38.57-250.26,152.18-89.01,106.14-125.14,233.2-125.14,358.34,0,87.71,54.94,250.69,136.51,312.83,91.3,69.56,212.44,72.65,264.48,70.24,52.05,2.41,173.18-.68,264.48-70.24,81.57-62.15,136.51-225.13,136.51-312.83,0-125.14-36.11-252.2-125.12-358.34Zm-577.82,346.53c-2.27,3.99-7.35,5.39-11.34,3.12-3.66-2.08-5.19-6.55-3.57-10.43,12.05-24.77,32.69-43.39,64.22-48.1.28-.06.56-.09.85-.13.75-.04,1.5.03,2.23.19,4.5.91,7.4,5.31,6.48,9.8-.71,3.45-3.52,6.09-7.01,6.56-26.57,3.98-41.49,17.69-51.85,39Zm131.52,89.36l-59.6,5.7c-17.1-9.33-29.03-26.95-28.5-47.68,0-30.06,24.36-53.91,54.43-53.91,30.06.52,53.91,24.88,53.91,54.43-.01,17.1-8.3,31.61-20.23,41.46Zm269.98,73.75s-.02.05-.03.08c-.48,1.06-.97,2.13-1.47,3.19-.03.05-.05.11-.08.16-.49,1.04-1,2.07-1.51,3.1-.04.08-.08.15-.12.23-.51,1.01-1.03,2.02-1.57,3.03-.05.09-.1.19-.15.28-.53.99-1.07,1.98-1.63,2.96-.06.11-.12.21-.18.32-.55.97-1.12,1.94-1.69,2.9-.07.11-.14.23-.2.34-.58.96-1.17,1.91-1.78,2.86-.07.11-.14.23-.22.34-.61.95-1.23,1.9-1.87,2.84-.07.11-.14.22-.22.32-.65.95-1.32,1.9-2,2.84-.07.09-.13.18-.19.27-.71.97-1.43,1.93-2.17,2.89-.04.05-.08.11-.12.16-4.72,6.08-10.1,11.8-16.23,16.91-.16.13-.32.26-.48.39-.85.7-1.7,1.38-2.57,2.06-.27.21-.56.41-.83.62-.77.58-1.55,1.16-2.35,1.72-.35.25-.71.49-1.06.73-.74.51-1.48,1.01-2.24,1.5-.41.26-.82.52-1.24.78-.72.45-1.45.9-2.2,1.34-.45.27-.92.53-1.38.79-.72.41-1.45.81-2.19,1.21-.49.26-.99.52-1.5.77-.73.37-1.46.73-2.2,1.09-.53.25-1.06.5-1.6.75-.74.34-1.48.66-2.23.98-.56.24-1.13.47-1.7.7-.75.3-1.51.6-2.28.88-.59.22-1.18.44-1.78.65-.77.27-1.55.53-2.34.79-.62.2-1.23.4-1.86.59-.79.24-1.6.47-2.41.69-.64.18-1.28.35-1.92.52-.82.21-1.66.4-2.5.6-.66.15-1.31.31-1.98.45-.86.18-1.73.34-2.6.5-.67.12-1.34.25-2.02.37-.9.15-1.82.28-2.74.41-.67.09-1.34.2-2.02.28-.97.12-1.97.21-2.96.31-.65.06-1.3.14-1.96.19-1.11.09-2.24.15-3.38.21-.57.03-1.12.08-1.69.1-1.72.07-3.46.1-5.23.1s-3.44-.04-5.12-.11c-.57-.02-1.12-.07-1.68-.1-1.1-.06-2.2-.12-3.28-.21-.66-.05-1.3-.13-1.95-.2-.96-.09-1.92-.19-2.86-.3-.69-.09-1.36-.19-2.03-.29-.88-.13-1.76-.25-2.63-.4-.69-.12-1.37-.25-2.05-.38-.83-.16-1.66-.31-2.47-.49-.68-.15-1.35-.31-2.03-.47-.79-.19-1.57-.37-2.35-.57-.67-.18-1.33-.36-1.99-.55-.75-.21-1.5-.43-2.24-.66-.66-.2-1.3-.42-1.95-.63-.72-.24-1.44-.48-2.15-.74-.64-.23-1.26-.46-1.89-.7-.7-.27-1.39-.54-2.07-.82-.61-.25-1.22-.51-1.83-.77-.67-.29-1.34-.59-2-.9-.59-.27-1.18-.55-1.76-.83-.65-.32-1.3-.65-1.94-.98-.56-.29-1.13-.59-1.68-.89-.64-.35-1.27-.71-1.9-1.07-.53-.31-1.07-.61-1.59-.93-.63-.38-1.25-.77-1.87-1.17-.5-.32-1-.63-1.49-.95-.63-.42-1.25-.85-1.87-1.28-.45-.32-.91-.63-1.36-.95-.65-.47-1.29-.96-1.92-1.44-.4-.3-.8-.6-1.19-.91-.7-.55-1.39-1.12-2.08-1.69-.3-.25-.61-.5-.91-.75-.87-.74-1.72-1.5-2.55-2.26-.1-.1-.21-.19-.32-.28-2.89-2.66-5.59-5.46-8.13-8.38-.03-.03-.05-.06-.08-.09-.81-.94-1.61-1.89-2.39-2.84-.06-.07-.12-.15-.18-.22-.75-.92-1.48-1.85-2.19-2.79-.06-.08-.12-.16-.18-.24-.71-.94-1.41-1.89-2.09-2.85-.04-.06-.09-.13-.13-.19-.7-.99-1.38-1.98-2.05-2.98-.02-.03-.04-.06-.06-.08-25.76-38.65-28.33-87.43-28.33-87.43,0,0,51.99-10.81,112.74-10.81,74.18,0,119.16,10.81,119.16,10.81,0,0-1.68,31.99-16.27,64.69Zm132.13-67.79l-59.61-6.22c-12.44-9.85-20.21-24.88-20.21-41.98,0-30.06,24.36-53.91,54.43-53.91,30.06,1.03,54.43,25.4,54.43,54.94,0,20.73-11.93,38.36-29.03,47.16Zm83.3-91.88c-4.15,2.01-9.13.3-11.15-3.84-10.46-21.25-25.33-34.84-51.91-38.69-4.54-.67-7.69-4.9-7.02-9.44.58-3.88,3.78-6.84,7.7-7.1.19-.01.35-.01.54,0,.41,0,.81.06,1.21.12,1.97.29,3.97.57,5.85.97,28.32,5.9,47.21,23.67,58.62,46.84,2.02,4.14.3,9.13-3.83,11.14Z"/>
      <path class="cls-4" d="m754.44,1253.24c-3.71,1.8-8.17.27-9.97-3.43-9.36-19.01-22.66-31.17-46.44-34.61-4.06-.6-6.88-4.38-6.28-8.45.52-3.47,3.38-6.12,6.88-6.35.17-.01.32-.01.48,0,.37,0,.72.05,1.08.11,1.77.26,3.55.51,5.23.87,25.34,5.28,42.23,21.17,52.44,41.9,1.81,3.7.27,8.16-3.42,9.96Z"/>
      <path id="path3177" class="cls-10" d="m340.4,767.44c.89,3.05,1.7,5.92,2.49,8.7,38-18.09,71.77-26.21,97.47-29.64v-1.39s9.35-1.37,25.59-.82c16.25-.55,25.59.82,25.59.82v1.39c29.96,3.99,70.85,14.36,116.65,39.46-1.77-20.72-1.04-52.8,14.63-80.66,44.29-78.74,147.89-130.82,147.89-130.82,0,0-42.2-4.2-88.03-1.08,45.94-47.2,119.31-109.84,119.31-109.84,0,0-69.76,20.34-117.41,38.24,13.86-27.78,26.32-51.82,34.94-66.67,20.58-35.48,139.34-139.35,139.34-139.35,0,0-128.58,32.79-164.94,56.88-17.7,11.72-47.25,45.44-70.08,73.14,26.93-43.17,53.02-78.84,53.02-78.84-37.91,14.38-63.94,25.55-85.67,39.03.45-20.6,1.39-43.03,3.19-64.62,5.09-61.08,10.74-60.23,39.82-159.26,0,0-76.79,59.72-116.6,167.79-6.86,18.62-20.28,68.85-31.25,111.41-4.85,7.89-12.4,20.39-20.91,35.48-7.55-49.88-28.77-144.36-84.35-186.7-59.72-45.51-136.51-39.82-136.51-39.82,0,0,65.75,71.67,76.79,96.69,21.52,48.77,28.55,97.53,30.25,133.89-43.13-57.64-146.86-96.92-146.86-96.92,0,0,67.65,57.32,93.15,111.86-24.49-17.4-56.4-35.72-93.15-46.44-68.25-19.91-147.88,5.69-147.88,5.69,0,0,94.55,37.72,122.29,56.88,31.45,21.71,59.89,48.16,84.8,75.33-29.97-20.47-66.68-37.98-107.55-41.21C45.52,537.28,0,585.85,0,585.85c0,0,124.05,15.28,164.95,39.81,41.76,25.06,153.73,122.72,175.45,141.77Z"/>
      <path id="path3179" class="cls-6" d="m340.4,767.44c.89,3.05,1.7,5.92,2.49,8.7,38-18.09,71.77-26.21,97.47-29.64v-1.39s9.35-1.37,25.59-.82c16.25-.55,25.59.82,25.59.82v1.39c29.96,3.99,70.85,14.36,116.65,39.46-1.77-20.72-1.04-52.8,14.63-80.66,44.29-78.74,147.89-130.82,147.89-130.82,0,0-42.2-4.2-88.03-1.08,45.94-47.2,119.31-109.84,119.31-109.84,0,0-122.13,35.61-153.57,54.04-59.06,34.62-90.31,83.68-103.35,108.83-2.36,1.84-4.62,3.65-6.78,5.43,3.42-44.88,5.21-24.83,33.35-105.73,23.43-67.37,105.23-179.17,105.23-179.17-82.48,31.28-108.98,47.25-156.42,105.23-10.41,12.73-20.83,28.56-30.83,45.65,1.4-38.79,2.39-65.56,2.39-65.56,0,0-53.18,82.75-73.94,145.04-3.88,11.64-6.89,24.75-9.25,37.68-10.15-36.07-28.39-91.3-53.31-128.68-40.41-60.61-150.73-102.38-150.73-102.38,0,0,81.94,69.3,99.54,127.98,8.58,28.6,18.6,66.56,26.44,97.22-3.4-2.6-6.59-4.78-9.38-6.22-11.19-5.76-32.3-10.33-54.62-13.83-30.45-21.27-68.21-39.73-110.32-43.05C45.52,537.28,0,585.85,0,585.85c0,0,124.05,15.28,164.95,39.81,41.76,25.06,153.73,122.72,175.44,141.77Z"/>
      <path id="path3181" class="cls-7" d="m304.3,676.85c14.56,19.35,29.96,68.66,38.59,99.28,38-18.08,71.76-26.21,97.47-29.64v-1.39s9.35-1.37,25.59-.82c16.25-.55,25.59.82,25.59.82v1.39c29.96,3.99,70.85,14.36,116.65,39.46-1.77-20.72-1.04-52.8,14.63-80.66,44.29-78.74,147.89-130.82,147.89-130.82,0,0-113.76-11.38-170.64,17.06-61.47,30.74-96.7,73.94-96.7,73.94,0,0-17.71-54.99-17.06-73.94,2.85-82.47,5.69-159.26,5.69-159.26,0,0-53.18,82.75-73.94,145.04-14.22,42.66-17.06,105.22-17.06,105.22,0,0-54.59-66.75-79.63-79.63-30.76-15.83-136.51-22.75-136.51-22.75,0,0,98.86,69.33,119.45,96.69Z"/>
      <path id="path24" class="cls-8" d="m464.64,1477.41c58.06,0,87.44-37.2,102.26-72.36-11.04-7.57-26.28-16.38-42.86-17.99-29.2-2.82-57.92,10.28-57.92,10.28,0,0-24.81-13.33-54.91-9.64-20.62,2.52-35.81,10.43-46.78,17.24,14.51,35.2,43.31,72.46,100.2,72.46Z"/>
      <g>
        <path id="path23" class="cls-3" d="m230.2,1287.02c4.66,7.78,15.03,10.37,22.81,5.7,7.78-4.66,10.37-15.03,5.7-22.81-4.66-7.78-15.03-10.37-22.81-5.7-7.78,4.66-9.85,15.03-5.7,22.81Z"/>
        <path id="path25" class="cls-3" d="m668.59,1287.02c-4.66,7.78-15.03,10.37-22.81,5.7-7.78-4.66-10.37-15.03-5.7-22.81,4.66-7.78,15.03-10.37,22.81-5.7,7.78,5.18,10.37,15.03,5.7,22.81Z"/>
      </g>
      <path class="cls-5" d="m866.64,1238.2c-.46-15.94-1.53-31.87-3.22-47.78l-.49.4-78.31-64.84,55.93-46.32c-9.4-30.02-21.5-59.47-36.51-88.06l-33.65-27.86,11.83-9.8c-6.08-9.55-12.55-18.98-19.36-28.28l-19.22,15.92-66.95-55.43,30.48-25.23c-8.45-8.38-16.88-16.16-25.26-23.4l-31.96,26.48-64.1-53.08,27.04-22.39c-11.4-6.46-22.53-12.01-33.27-16.75l-20.52,16.99-46.78-38.74c-7.37-1.52-14.31-2.69-20.73-3.54v-1.39s-9.35-1.37-25.59-.82c-16.25-.55-25.59.82-25.59.82v1.39c-4.67.62-9.64,1.42-14.82,2.38l-48.19,39.9-22.07-18.27c-10.82,4.66-22.03,10.11-33.56,16.52l28.87,23.9-64.1,53.08-34.28-28.39c-8.43,7.18-16.9,14.94-25.4,23.27l32.92,27.26-66.94,55.43-22.04-18.25c-6.87,9.26-13.33,18.67-19.47,28.19l14.75,12.21-41.58,34.43c-12.96,25.58-23.63,51.82-32.16,78.52l59.52,49.29-78.31,64.85-4.67-3.86c-2.06,18.32-3.18,36.68-3.61,55.02l8.28-6.86,64.1,53.08-61.6,51.01c5.94,25.26,14.16,51.88,24.36,78.04l34.39,28.47-16.1,13.34c5.16,10.55,10.63,20.83,16.41,30.72l26.45-21.9,78.32,64.85-41.63,34.47c1.09.89,2.16,1.81,3.26,2.65,8.43,6.41,17.16,12.09,26.01,17.42l39.11-32.39,78.31,64.85-11.04,9.14c32.64,7.34,63.53,10.38,89.27,11.33l-24.73-20.47,69.78-57.78,69.79,57.79-24.5,20.28c25.73-1.17,56.17-4.43,88.13-11.91l-10.12-8.37,78.32-64.86,37.23,30.82c7.95-4.91,15.81-10.07,23.39-15.85,1.87-1.43,3.72-2.96,5.55-4.48l-39.41-32.64,78.32-64.85,23.43,19.4c5.72-9.95,11.13-20.28,16.23-30.86l-12.91-10.7,27.74-22.96c11.65-29,20.85-58.72,27.24-86.67l-57.82-47.89,64.09-53.08,3.72,3.07Zm-44.68-187.46l-64.1,53.08-78.32-64.85,64.1-53.07,78.32,64.85Zm-249.33,205.32l-77.63-64.27,66.94-55.43,78.32,64.85-18.36,15.21s.09.04.14.05l-48.68,40.13-.74-.61s0,.05.01.07Zm-104.39-241.6l-64.1-53.08,64.1-53.07,64.1,53.07-64.1,53.08Zm90.85-30.93l66.95,55.43-64.1,53.08-66.94-55.44,64.1-53.08Zm-117.61,53.08l-66.94,55.44-64.1-53.08,66.94-55.43,64.1,53.08Zm-93.7,77.59l-78.32,64.86-64.1-53.08,78.32-64.86,64.1,53.08Zm-78.31,109.16l7.8,6.45c.1-.09.2-.18.3-.27,4.54,3.8,56.22,47.04,58.75,49.54l-20.68,17.06c-.93,15.78-8.92,29.17-20.13,38.43l-29.89,2.86-7.52,6.21-5.94-4.92-16.24,1.55c-14.38-7.84-25.1-21.56-27.84-38.05l-16.92-14.01,20.73-17.17c6.74-15.43,20.52-26.99,37.32-30.9l20.26-16.78Zm39.32-11.22c.16-.04.31-.1.48-.14l-13.04-10.8,78.32-64.85,66.94,55.43-78.32,64.85-54.37-44.49Zm92.5-97.94l66.95-55.42,66.94,55.42-66.94,55.43-66.95-55.43Zm258.06,115.76s-.08-.1-.12-.14l7.78-6.44,21.96,18.18c13.07,4.54,23.96,13.66,30.62,25.35l25.73,21.3-19.9,16.48c-3.45,15.72-13.92,28.68-27.8,35.84l-13.73-1.43-5.5,4.55-7.08-5.86-33.31-3.47c-12.16-9.63-19.85-24.22-20.18-40.85l-18.6-15.41,60.12-48.09Zm7.66-50.9l-78.32-64.86,64.09-53.08,78.32,64.86-64.09,53.08Zm49.87-215.31l-64.1,53.08-66.94-55.42,64.1-53.07,66.94,55.42Zm-93.7-77.58l-64.1,53.08-64.1-53.08,64.1-53.08,64.1,53.08Zm-154.95-128.3l64.1,53.08-64.1,53.08-64.1-53.08,64.1-53.08Zm-90.86,75.23l64.1,53.08-64.1,53.08-64.1-53.08,64.1-53.08Zm-90.85,75.24l64.1,53.07-66.94,55.42-64.1-53.08,66.94-55.42Zm-172.01,142.42l78.32-64.85,64.1,53.07-78.31,64.85-64.1-53.08Zm-14.22,162.24l78.32-64.86,64.1,53.08-78.32,64.86-64.1-53.08Zm-5.69,155.16l69.79-57.78,66.94,55.42-69.79,57.79-66.94-55.43Zm93.7,77.58l69.78-57.77,78.32,64.84-69.78,57.79-78.32-64.86Zm183.39,151.86l-78.32-64.85,69.78-57.78,78.32,64.85-69.79,57.78Zm96.51-79.84c-25.21-20.73-48.61-40.77-77.04-64.14l3.41-2.9c-2.48-2.35-4.82-4.8-7.03-7.34-.03-.03-.05-.06-.08-.09-.81-.94-1.61-1.89-2.39-2.84-.06-.07-.12-.15-.18-.22-.75-.92-1.48-1.85-2.19-2.79-.06-.08-.12-.16-.18-.24-.71-.94-1.41-1.89-2.09-2.85-.04-.06-.09-.13-.13-.19-.7-.99-1.38-1.98-2.05-2.98-.02-.03-.04-.06-.06-.08-1.76-2.65-3.42-5.34-4.97-8.06l-1.15.96c-.03-.2-.07-.43-.11-.62l-8.8,7.29-78.31-64.86,77.89-64.39c13.01,11.11,28.06,23.51,41.49,34.44,15.18-1.51,32.6-2.7,51.02-2.96l-65.33-54.1,78.32-64.85,78.32,64.85-65.54,54.27c19.08.47,35.83,1.62,49.91,3l43.51-36.01,77.2,65.76-78.32,64.86-12.22-10.12c-.01.1-.04.29-.06.42-.24-.36-.46-.71-.65-1.01l-.47-.39c-.33.6-.65,1.2-.99,1.8-.06.11-.12.21-.18.32-.55.97-1.12,1.94-1.69,2.9-.07.11-.14.23-.2.34-.58.96-1.17,1.91-1.78,2.86-.07.11-.14.23-.22.34-.61.95-1.23,1.9-1.87,2.84-.07.11-.14.22-.22.32-.65.95-1.32,1.9-2,2.84-.07.09-.13.18-.19.27-.71.97-1.43,1.93-2.17,2.89-.04.05-.08.11-.12.16-2.56,3.3-5.33,6.49-8.3,9.54l8.03,6.61-79.1,63.56-.73.58Zm96.58,79.84l-69.79-57.78,78.32-64.85,69.79,57.78-78.32,64.85Zm105.07-87l-69.78-57.79,78.32-64.85,69.78,57.78-78.32,64.86Zm172.02-142.43l-66.94,55.43-69.79-57.79,66.94-55.42,69.79,57.78Zm-69.79-102.09l-78.32-64.86,64.1-53.08,78.32,64.86-64.1,53.08Z"/>
      <g>
        <path id="path4959" class="cls-2" d="m306.86,1365.36c0,21.86-23.39,39.59-52.24,39.59s-52.24-17.73-52.24-39.59,23.39-39.61,52.24-39.61c28.86,0,52.24,17.73,52.24,39.61Z"/>
        <path id="path3382" class="cls-2" d="m679.44,1325.74c28.85,0,52.22,17.76,52.22,39.63s-23.37,39.58-52.22,39.58-52.27-17.71-52.27-39.58,23.43-39.63,52.27-39.63Z"/>
      </g>
    </g>
  </g>
</svg>